<svg xmlns="http://www.w3.org/2000/svg" width="26" height="26" class="icon icon--drink-more-water-2   " fill-rule="evenodd" stroke-linejoin="round" stroke-miterlimit="2" clip-rule="evenodd" viewBox="0 0 309 309">
            <path fill="currentColor" fill-rule="nonzero" d="m222.467 255.804-7.321-98.117c-.091-1.215-1.118-2.165-2.337-2.162h-23.867c-1.248.053-2.247 1.094-2.247 2.344 0 1.249.999 2.291 2.247 2.343h21.692l2.883 38.613c-19.421-7.797-41.166-7.566-60.417.642-18.517-8.162-39.59-8.4-58.287-.659l2.875-38.596h22.967c.033.002.065.003.098.003 1.287 0 2.346-1.059 2.346-2.346 0-1.287-1.059-2.346-2.346-2.346-.033 0-.065.001-.098.002H95.517c-1.22-.005-2.248.946-2.337 2.163l-7.313 98.116c-1.037 14.316 3.777 28.457 13.333 39.167 7.622 8.494 18.509 13.356 29.921 13.362h50.084c11.414-.004 22.303-4.87 29.92-13.371 9.559-10.705 14.376-24.843 13.342-39.158ZM209.8 202.383a69.2523 69.2523 0 0 1-12.129 3.484 69.2305 69.2305 0 0 1-21.666.587 69.4083 69.4083 0 0 1-16.496-4.471c16.302-5.686 34.082-5.545 50.291.4Zm-4.166 89.459c-6.728 7.505-16.342 11.802-26.421 11.808H129.13c-10.082-.004-19.698-4.305-26.421-11.817-8.716-9.75-13.106-22.635-12.159-35.679L94.434 204c18.334-8.301 39.394-8.265 57.7.1l.937.438A74.5486 74.5486 0 0 0 185 211.721c1.945 0 3.889-.078 5.834-.234 2.577-.196 5.142-.533 7.683-1.008a74.6054 74.6054 0 0 0 14.963-4.429l.554-.225 3.75 50.333c.948 13.044-3.438 25.93-12.146 35.688l-.004-.004Zm-52.404-44.2v2.171c0 2.854-1.055 3.908-3.9 3.908h-2.084c-1.818.208-3.545-.908-4.104-2.65l-1.908-4.221a2.615 2.615 0 0 1-.163-2.313 2.5772 2.5772 0 0 1 2.179-.795h6.088c2.842.004 3.896 1.062 3.896 3.904l-.004-.004Zm1.875 2.171v-2.084c-.209-1.818.907-3.545 2.65-4.104l4.22-1.9c.466-.229.974-.359 1.492-.383 1.346 0 1.617 1.296 1.617 2.391v6.088c0 2.854-1.054 3.908-3.9 3.908h-2.171c-2.842-.004-3.904-1.058-3.904-3.908l-.004-.008Zm-1.875 9.683v2.083c.21 1.816-.902 3.544-2.642 4.104-1.406.642-2.813 1.275-4.221 1.9a3.674 3.674 0 0 1-1.5.384c-1.337 0-1.617-1.296-1.617-2.384v-6.095c0-2.846 1.055-3.9 3.909-3.9h2.171c2.85.012 3.904 1.07 3.904 3.912l-.004-.004Zm13.879 2.962c.302.351.468.799.468 1.261 0 1.061-.873 1.934-1.934 1.934-.183 0-.366-.026-.543-.078h-6.083c-2.846 0-3.908-1.062-3.908-3.908v-2.171c0-2.846 1.062-3.9 3.908-3.9h2.083c1.816-.209 3.543.902 4.105 2.642l1.9 4.22h.004Zm-15.317-138.104v-19.166c0-1.285 1.057-2.342 2.342-2.342 1.284 0 2.341 1.057 2.341 2.342v19.166c0 1.285-1.057 2.342-2.341 2.342-1.285 0-2.342-1.057-2.342-2.342Zm.071-30.75V81.521c.053-1.246 1.092-2.243 2.339-2.243 1.248 0 2.287.997 2.34 2.243v12.083c.001.033.002.066.002.099 0 1.285-1.057 2.342-2.342 2.342-1.284 0-2.341-1.057-2.341-2.342 0-.033.001-.066.002-.099Zm-17.808 42.5h-.005c-1.284 0-2.341-1.057-2.341-2.341v-14.296c-.002-.033-.002-.066-.002-.099 0-1.287 1.059-2.346 2.345-2.346 1.287 0 2.346 1.059 2.346 2.346 0 .033 0 .066-.002.099v14.304c0 1.284-1.057 2.342-2.341 2.342v-.009Zm-2.346-35.116v-4.696c-.002-.033-.002-.066-.002-.099 0-1.287 1.059-2.346 2.345-2.346 1.287 0 2.346 1.059 2.346 2.346 0 .033 0 .066-.002.099v4.696c-.052 1.248-1.094 2.246-2.344 2.246-1.249 0-2.291-.998-2.343-2.246Zm.696 10a2.278 2.278 0 0 1-.705-1.646c0-.622.255-1.217.705-1.646.923-.849 2.36-.849 3.283 0 .454.426.712 1.023.712 1.646s-.258 1.219-.712 1.646c-.419.46-1.019.718-1.642.704a2.7619 2.7619 0 0 1-.833-.163 2.9598 2.9598 0 0 1-.804-.516l-.004-.025Zm39.533 22.754V119.45c.053-1.249 1.094-2.247 2.344-2.247 1.249 0 2.291.998 2.343 2.247v14.292c.002.033.002.066.002.099 0 1.286-1.058 2.345-2.345 2.345-1.287 0-2.346-1.059-2.346-2.345 0-.033.001-.066.002-.099Zm0-32.775v-4.696c-.001-.033-.002-.066-.002-.099 0-1.287 1.059-2.346 2.346-2.346 1.287 0 2.345 1.059 2.345 2.346 0 .033 0 .066-.002.099v4.696c-.052 1.248-1.094 2.247-2.343 2.247-1.25 0-2.291-.999-2.344-2.247Zm4 6.729c.459.42.713 1.02.696 1.642.009.301-.069.599-.225.858-.082.3-.243.572-.467.787-.429.448-1.022.702-1.642.705a3.9754 3.9754 0 0 1-.937-.163 3.9126 3.9126 0 0 1-.704-.537 2.2777 2.2777 0 0 1-.704-1.667c.011-.284.061-.564.15-.833.137-.293.324-.56.554-.788.196-.225.435-.408.704-.537a2.3122 2.3122 0 0 1 1.796 0c.29.141.555.33.783.558l-.004-.025Zm-43.379 39.525a6.4896 6.4896 0 0 0-.834 3.242v18.404c.013 2.373 1.283 4.571 3.334 5.766l15.862 9.213c1.026.591 2.191.898 3.375.892a6.5537 6.5537 0 0 0 3.334-.938l15.708-9.275c2.029-1.198 3.282-3.381 3.292-5.737v-18.221a6.4176 6.4176 0 0 0-.834-3.188v-.025l-.054-.037a6.788 6.788 0 0 0-2.375-2.471l-15.721-9.258c-2.068-1.206-4.63-1.221-6.712-.038l-15.854 9.167a6.6245 6.6245 0 0 0-2.517 2.529l-.004-.025Zm3.837 21.667v-16.746L150 159.954c.605.36 1.253.641 1.93.834v18.27l-14.534-8.441a1.9869 1.9869 0 0 1-.996-1.725l-.004-.004Zm35.542-.08c.001.696-.372 1.341-.975 1.688l-14.338 8.471v-18.192a7.796 7.796 0 0 0 1.917-.833l13.4-7.696-.004 16.562Zm-18.675-29.212c.294-.17.627-.259.967-.258.358.002.709.1 1.016.283l14.459 8.517-13.513 7.758c-.582.337-1.244.512-1.917.508a3.8297 3.8297 0 0 1-1.929-.508l-13.683-7.854 14.6-8.446Z"/>
        </svg>