<svg xmlns="http://www.w3.org/2000/svg" width="26" height="26" class="icon icon--drink-more-water-1   " fill-rule="evenodd" stroke-linejoin="round" stroke-miterlimit="2" clip-rule="evenodd" viewBox="0 0 309 309">
            <path fill="currentColor" fill-rule="nonzero" d="m269.289 256.579-7.15-95.746c-.098-1.421-1.296-2.538-2.721-2.537h-26.141c-.138-14.692-3.58-25.867-10.509-32.946-5.777-5.583-13.495-8.72-21.529-8.75-1.342-7.296-3.042-15.771-5-23.283-3.058-11.634-7.817-24.909-10.654-32.846-.95-2.638-1.667-4.646-2-5.688a6.3047 6.3047 0 0 0-3.067-4.254c-3.333-1.596-8.191.117-26.104 7.459-17.912 7.341-22.779 14.425-25.95 19.112-1.9 2.796-2.683 3.946-5.417 4.383-3.112.484-5.358-.783-9.479-3.27a45.6547 45.6547 0 0 0-24.166-7.734 2.8266 2.8266 0 0 0-.184-.006c-1.449 0-2.646 1.186-2.658 2.635-.002.037-.002.074-.002.111 0 1.462 1.17 2.681 2.631 2.739 7.69.207 15.162 2.612 21.529 6.93a18.5246 18.5246 0 0 0 13.196 4c3.926-.658 7.307-3.159 9.083-6.721 2.975-4.384 7.05-10.384 23.488-17.121 8.354-3.417 19.796-8.125 21.475-7.725.187.339.327.702.417 1.079.354 1.125 1.104 3.204 2.083 5.925 2.812 7.854 7.5 20.983 10.517 32.379 2.162 8.246 4 17.704 5.379 25.438l.512 2.875c.309 1.725.621 3.508.867 4.95.446 2.591.787 4.529 1.042 5.8l.245 1.387c-1.879 1.363-13.266 2.821-22.5 3.979-17.658 2.33-24.187-.92-28.908-3.287-3.278-2.223-7.429-2.75-11.158-1.417a18.6783 18.6783 0 0 0-9.534 9.971 40.334 40.334 0 0 1-15.329 16.638 540.137 540.137 0 0 1-56.746 25.366c-4.583 1.863-9.35 3.771-14.2 5.679-1.046.412-1.738 1.428-1.738 2.552 0 1.505 1.238 2.743 2.743 2.743.343 0 .684-.065 1.004-.19 4.866-1.925 9.633-3.834 14.246-5.696a543.7053 543.7053 0 0 0 57.533-25.788 45.7333 45.7333 0 0 0 17.212-18.608c2.346-4.2 3.717-6.438 6.638-7.5 2.583-.958 3.825-.321 6.829 1.167 5.05 2.529 12.692 6.345 32.058 3.833 7.647-.627 15.226-1.906 22.655-3.825.651 5.822.759 11.691.32 17.533h-55.183c-1.425-.001-2.623 1.116-2.721 2.538l-7.141 95.746c-1.022 14.09 3.716 28.008 13.12 38.55 7.524 8.385 18.272 13.187 29.538 13.195h48.867c11.266-.011 22.012-4.816 29.533-13.204 9.405-10.542 14.144-24.459 13.129-38.55Zm-64.867-122-.029-.137c-.05-.464-.127-.924-.229-1.379-.037-.155-.092-.484-.129-.684l-1.113-6.25c-.216-1.25-.454-2.629-.712-4.083a25.262 25.262 0 0 1 16.637 7.142c5.909 6.025 8.838 15.904 8.967 29.108h-7.742c.656-6.968.041-13.998-1.816-20.746-.362-1.135-1.423-1.911-2.615-1.911-1.505 0-2.744 1.239-2.744 2.744 0 .283.044.564.13.834a53.8463 53.8463 0 0 1 1.57 19.091h-8.95c.655-7.929.243-15.91-1.225-23.729Zm-56.912 29.192h109.362l2.917 38.962-1.633.675a67.7405 67.7405 0 0 1-13.588 4.025c-1.087.2-2.171.284-3.258.417a99.9987 99.9987 0 0 1-8.463-34.096c.001-.014.001-.028.001-.042 0-1.484-1.209-2.71-2.692-2.733h-.038c-1.483.004-2.708 1.209-2.737 2.692.777 11.93 3.478 23.657 8 34.725a67.325 67.325 0 0 1-10.784-.338 116.5267 116.5267 0 0 1-3.187-15.895c-.186-1.347-1.349-2.36-2.708-2.36-1.5 0-2.735 1.235-2.735 2.734 0 .126.009.251.026.376.62 4.718 1.495 9.4 2.621 14.025a66.3492 66.3492 0 0 1-10.554-3.096 81.8225 81.8225 0 0 1-3.333-30c.001-.041.002-.082.002-.123 0-1.502-1.236-2.738-2.738-2.738-1.456 0-2.67 1.161-2.735 2.615a91.4348 91.4348 0 0 0 2.421 27.742c-18.029-8.045-38.576-8.421-56.888-1.042l2.721-36.525Zm104.583 127.704c-6.482 7.225-15.743 11.361-25.45 11.367H177.76c-9.71-.005-18.973-4.141-25.458-11.367-8.417-9.429-12.656-21.882-11.742-34.487l3.771-50.613c17.708-7.954 38.015-7.888 55.671.183l.912.417c1.042.492 2.154.783 3.213 1.225.468.415 1.069.652 1.695.667h.038a68.7757 68.7757 0 0 0 26.379 5.166c1.917 0 3.84-.079 5.771-.237.612-.046 1.25-.175 1.846-.238.046 0 .075.046.108.046s.163-.092.254-.1c1.779-.192 3.563-.366 5.325-.696a72.2879 72.2879 0 0 0 14.659-4.32l3.625 48.504c.912 12.607-3.331 25.06-11.75 34.487l.016-.004Zm-50.804-42.833v2.129c0 2.775-1.025 3.808-3.8 3.808h-2.054c-1.769.2-3.449-.887-3.992-2.583l-1.871-4.117a1.889 1.889 0 0 1-.459-1.234c0-1.035.852-1.887 1.888-1.887.184 0 .366.027.542.079l5.946.001c2.763 0 3.783 1.033 3.783 3.808l.017-.004Zm1.833 2.129v-2.054c-.203-1.773.885-3.457 2.584-4l4.116-1.854c.457-.224.955-.349 1.463-.367 1.304 0 1.571 1.25 1.571 2.329v5.946c0 2.775-1.034 3.808-3.809 3.808h-2.116c-2.792 0-3.821-1.029-3.821-3.808h.012Zm-1.833 9.442v2.045c.209 1.773-.876 3.462-2.575 4.009-1.371.621-2.746 1.25-4.125 1.854-.452.223-.946.348-1.45.367-1.304 0-1.579-1.25-1.579-2.33v-5.945c0-2.775 1.033-3.809 3.808-3.809h2.129c2.755 0 3.775 1.034 3.775 3.809h.017Zm13.55 2.895c.294.343.456.779.456 1.231 0 1.035-.852 1.887-1.887 1.887-.18 0-.359-.025-.531-.076h-5.946c-2.775 0-3.809-1.033-3.809-3.808v-2.129c0-2.775 1.034-3.809 3.809-3.809h2.046c1.772-.204 3.456.884 4 2.584l1.854 4.116.008.004Zm-73.796-141.2c-1.503 0-2.739-1.236-2.739-2.739s1.236-2.74 2.739-2.74h50.65c1.503 0 2.74 1.237 2.74 2.74 0 1.503-1.237 2.739-2.74 2.739h-50.65Zm-10.966-.804a3.1588 3.1588 0 0 1-.63-.912 3.0468 3.0468 0 0 1-.183-1.004c.022-1.503 1.264-2.727 2.767-2.727.336 0 .669.061.983.181.337.153.643.366.904.629.548.484.853 1.186.834 1.917-.011.341-.07.679-.175 1.004-.161.34-.381.649-.65.912a2.473 2.473 0 0 1-1.917.834c-.735.02-1.443-.285-1.933-.834Zm-80.105-1.929v-.013c0-1.499 1.234-2.733 2.734-2.733h69.208c1.503 0 2.74 1.237 2.74 2.74 0 1.503-1.237 2.739-2.74 2.739H52.706c-1.5 0-2.734-1.234-2.734-2.733Zm158.75 13.663c-.345-.487-.53-1.07-.529-1.667-.011-.879.404-1.71 1.113-2.229.46-.343 1.018-.529 1.592-.529.854 0 1.658.411 2.158 1.104l.112.146c.331.463.509 1.019.509 1.589 0 1.502-1.236 2.738-2.738 2.738a2.739 2.739 0 0 1-2.229-1.148l.012-.004Zm5.963 47.966c-.183-2.421-.321-4.758-.417-6.966-.001-.039-.002-.077-.002-.115 0-1.459 1.166-2.675 2.623-2.735h.117c1.459-.002 2.677 1.162 2.741 2.62.092 2.155.217 4.438.392 6.784.104 1.493-1.036 2.808-2.529 2.916h-.2c-1.407-.012-2.586-1.106-2.704-2.508l-.021.004Z"/>
        </svg>