<svg xmlns="http://www.w3.org/2000/svg" width="26" height="26" class="icon icon--drink-more-water-3   " fill-rule="evenodd" stroke-linejoin="round" stroke-miterlimit="2" clip-rule="evenodd" viewBox="0 0 309 309">
            <path fill="currentColor" fill-rule="nonzero" d="m173.223 226.204-11.787-4.433L153.64 212a3.5253 3.5253 0 0 0-2.779-1.4h-.046a3.5453 3.5453 0 0 0-2.771 1.325l-7.85 9.85-12.029 4.533a3.7759 3.7759 0 0 0-1.954 2.35 3.416 3.416 0 0 0 .475 2.804l6.937 10.53.605 12.829c.145 1.055.733 2 1.616 2.596.554.354 1.198.54 1.854.537.328-.001.654-.045.971-.129l12.154-3.333 11.984 3.308a3.607 3.607 0 0 0 3.133-.483 3.4841 3.4841 0 0 0 1.492-2.742l.583-12.583 6.783-10.317c.68-.9.897-2.07.584-3.154a3.4745 3.4745 0 0 0-2.159-2.317Zm-9.395 13.779c-.223.349-.353.75-.375 1.163l-.542 11.9-11.471-3.171c-.2-.051-.406-.076-.612-.075a2.345 2.345 0 0 0-.613.075l-11.487 3.162-.538-11.891a2.3316 2.3316 0 0 0-.375-1.163l-6.554-9.941 11.142-4.188c.387-.148.728-.397.987-.721l7.429-9.312 7.425 9.3c.26.324.6.572.988.721l11.141 4.187-6.545 9.954Zm50.2-77.471v-.02c0-1.248 1.026-2.275 2.275-2.275h.054c.046-.003.092-.005.138-.005 1.259 0 2.296 1.037 2.296 2.296 0 1.26-1.037 2.296-2.296 2.296-.046 0-.092-.001-.138-.004-1.263.002-2.309-1.025-2.329-2.287ZM87.869 286.024c-.002 1.26-1.04 2.296-2.3 2.296h-.004c-1.266.002-2.313-1.03-2.329-2.296v-.021c0-1.248 1.027-2.275 2.275-2.275h.058c1.26 0 2.298 1.036 2.3 2.296Zm161.25-42.733-.221-1.755-1.762-.237a57.782 57.782 0 0 0-23.496 1.983l.063-1.3 6.8-10.316c.673-.9.886-2.066.575-3.146a3.521 3.521 0 0 0-2.159-2.313l-11.787-4.433-1.463-1.829-2.987-40.121c.455-.347.873-.74 1.25-1.171l2.304-3.529.246.383c1.179 1.809 2.083 3.179 2.129 3.246a7.4297 7.4297 0 0 0 6 3.051c4.074 0 7.426-3.352 7.426-7.426 0-1.572-.5-3.104-1.426-4.375-.025-.046-1.204-1.5-2.704-3.371 2.358-.637 4.196-1.141 4.196-1.141 3.025-1.008 5.078-3.857 5.078-7.046 0-4.074-3.352-7.427-7.426-7.427-.798 0-1.591.129-2.348.381l-3.959 1.508c.121-2.396.209-4.279.209-4.341 0-4.074-3.352-7.425-7.425-7.425s-7.425 3.351-7.425 7.425c0 .045.091 1.929.208 4.333-3.8-1.446-4.05-1.533-4.067-1.533-3.875-1.248-8.091.902-9.358 4.77-.055.317-.091.638-.108.959H92.757c-1.198-.003-2.205.935-2.288 2.129l-4.508 60.725-1.454 1.821-12.034 4.533a3.779 3.779 0 0 0-1.954 2.35c-.249.96-.073 1.983.484 2.804l6.929 10.521.596 12.813a3.752 3.752 0 0 0 1.625 2.612c.833.54 1.862.693 2.816.417l.246-.071c-.107 2.362-.05 4.729.171 7.083a6.9266 6.9266 0 0 0-1.992-.037c-3.53.641-6.122 3.746-6.122 7.334 0 .458.042.915.126 1.366l.942 4.137c-4.096-.783-4.229-.795-4.267-.795-.345-.05-.694-.074-1.043-.074-3.684 0-6.836 2.749-7.336 6.398-.045.333-.068.669-.068 1.005 0 3.713 2.776 6.887 6.456 7.383l4.258.392c-1.171 2.129-2.083 3.808-2.083 3.808-1.782 3.667-.237 8.15 3.425 9.942 3.661 1.757 8.12.217 9.916-3.425.021-.038.775-1.775 1.725-4.005 1.667 1.771 2.971 3.155 2.98 3.163a7.3489 7.3489 0 0 0 5.145 2.083h.155a7.3584 7.3584 0 0 0 5.2-2.275c.363-.435.673-.914.92-1.425a39.4841 39.4841 0 0 0 24.317 8.525h49.583c3.357-.016 6.697-.459 9.942-1.316 2.398.303 4.812.459 7.229.466 31.199-.081 56.826-25.775 56.826-56.974 0-2.413-.153-4.824-.459-7.217h-.042Zm-23.046-13.25-6.554 9.941c-.228.347-.361.748-.383 1.163l-.542 11.9-1.791-.496a1.7471 1.7471 0 0 0-.284-.075l-9.396-2.596c-.2-.051-.406-.076-.612-.075-.204-.002-.407.024-.604.075l-11.488 3.163-.537-11.892a2.4096 2.4096 0 0 0-.375-1.163l-6.563-9.941 11.142-4.188c.387-.148.728-.397.987-.721l7.438-9.304 7.437 9.288c.26.324.601.572.988.721l11.137 4.2Zm-26.116-72.48c.369-1.169 1.46-1.969 2.686-1.969.289 0 .576.045.851.132.359.129 3.829 1.454 7.163 2.725.261.1.539.151.819.151 1.262 0 2.3-1.038 2.3-2.3 0-.037-.001-.073-.003-.109-.175-3.646-.375-7.446-.383-7.63v-.035c0-1.557 1.281-2.838 2.838-2.838 1.543 0 2.818 1.259 2.837 2.803 0 .291-.208 4.066-.383 7.695a2.514 2.514 0 0 0-.003.122c0 1.257 1.034 2.292 2.291 2.292.283 0 .564-.053.828-.155l7.13-2.717a2.8878 2.8878 0 0 1 2.166.175c.665.34 1.168.929 1.4 1.638a2.821 2.821 0 0 1-.175 2.158c-.325.66-.902 1.163-1.6 1.396l-5.654 1.537-1.762.475c-1 .269-1.7 1.182-1.7 2.217 0 .527.181 1.037.512 1.446l4.788 5.933c.91 1.258.631 3.04-.621 3.958-1.229.913-2.988.662-3.913-.558l-4.221-6.454a2.2964 2.2964 0 0 0-1.922-1.042c-.775 0-1.5.393-1.923 1.042l-2.384 3.629c-1.033 1.579-1.8 2.767-1.8 2.767a2.8382 2.8382 0 0 1-2.239 1.094c-1.556 0-2.837-1.281-2.837-2.837 0-.55.16-1.088.46-1.549.2-.246 2.558-3.187 4.816-5.987.329-.41.509-.919.509-1.444 0-1.036-.698-1.95-1.696-2.223l-1.946-.521c-2.771-.75-5.225-1.417-5.417-1.462-1.459-.492-2.265-2.088-1.796-3.555h-.016Zm-105.088 4.13h101.129a7.2594 7.2594 0 0 0 4.267 3.75c.038 0 1.908.52 4.279 1.17-1.516 1.884-2.696 3.371-2.716 3.4a7.4356 7.4356 0 0 0-1.405 4.351c0 4.066 3.334 7.417 7.4 7.437.13 0 .267-.029.417-.038l.833 11.321c-18.68-7.861-39.833-7.509-58.241.971l-.075.038-.084-.038c-18.368-8.468-39.475-8.837-58.129-1.017l2.325-31.345Zm110.525 34.866a67.6841 67.6841 0 0 1-12 3.484 69.446 69.446 0 0 1-7.054.941c-10.004.85-20.07-.662-29.383-4.412 15.589-5.995 32.861-6 48.454-.013h-.017ZM82.478 241.141a2.4062 2.4062 0 0 0-.375-1.163l-6.555-9.933 11.15-4.188c.384-.15.722-.399.98-.721l7.429-9.312 7.437 9.296c.26.324.6.572.988.721l11.141 4.187-6.554 9.933c-.23.346-.359.748-.375 1.163l-.541 11.908-11.48-3.171c-.2-.051-.405-.076-.612-.075-.204-.001-.407.024-.604.075l-9.313 2.567c-.205.017-.406.072-.591.163l-1.58.416-.545-11.866Zm15 56.908c-.513.547-1.226.863-1.975.875a4.7636 4.7636 0 0 1-1.992-.767c-.163-.166-1.479-1.571-3.088-3.291l-2.166-2.296a2.2011 2.2011 0 0 0-2.084-.688c-.763.135-1.407.649-1.708 1.363-1.425 3.333-2.917 6.816-2.996 7.016-.469.985-1.467 1.614-2.558 1.614-1.555 0-2.835-1.279-2.835-2.834 0-.423.095-.84.277-1.221.116-.2 1.058-1.917 2.204-4.013l1.487-2.716c.186-.339.284-.719.284-1.106 0-1.18-.909-2.177-2.084-2.286l-7.596-.683c-1.538-.221-2.627-1.66-2.42-3.2.104-.743.502-1.414 1.104-1.863.485-.373 1.08-.575 1.691-.575.123-.001.246.008.367.029.358.054 4.029.75 7.529 1.425a2.306 2.306 0 0 0 2.084-.666c.542-.555.764-1.35.587-2.105l-1.7-7.445c-.261-1.531.776-3.008 2.304-3.284 1.499-.229 2.937.757 3.263 2.238l.966 7.65c.157 1.137 1.139 1.993 2.287 1.993.417 0 .826-.113 1.184-.327 3.104-1.862 6.342-3.8 6.542-3.912a2.825 2.825 0 0 1 1.36-.348c1.553 0 2.83 1.277 2.83 2.829 0 1.032-.564 1.985-1.469 2.481-.275.138-3.684 1.746-6.963 3.284-.804.376-1.32 1.188-1.32 2.076 0 .664.289 1.297.791 1.732l5.75 5.025c.476.466.766 1.09.813 1.754-.016.139-.016.279 0 .417a2.7824 2.7824 0 0 1-.759 1.821l.009.004Zm28.55 5.696c-8.653-.011-17.001-3.229-23.421-9.029a7.2314 7.2314 0 0 0-1.975-3.946c-.038-.038-1.471-1.296-3.3-2.896 2.175-1.025 3.891-1.838 3.929-1.863 2.343-1.311 3.799-3.794 3.799-6.479 0-4.073-3.352-7.425-7.425-7.425-1.143 0-2.271.264-3.295.771-.046.021-1.692 1.004-3.792 2.25l-.166-1.362c-.213-1.667-.367-2.871-.375-2.95a7.3172 7.3172 0 0 0-1.763-3.438 48.0554 48.0554 0 0 1-.416-10.692v-.212l7.291-2 12 3.308c.353.108.719.162 1.088.163 1.882-.003 3.451-1.503 3.537-3.384l.567-12.591 6.854-10.375c.635-.889.83-2.021.529-3.071a3.5022 3.5022 0 0 0-2.15-2.321l-11.796-4.433-7.812-9.788a3.5567 3.5567 0 0 0-2.816-1.386c-1.075 0-2.093.487-2.767 1.324l-1.325 1.666 1.15-15.437c17.96-8.219 38.647-8.182 56.579.1l.921.417a72.405 72.405 0 0 0 21.916 6.508c3.125.402 6.271.607 9.421.612 1.917 0 3.821-.083 5.713-.237 2.528-.198 5.045-.533 7.537-1.004a72.092 72.092 0 0 0 14.688-4.388l.641-.266 1.021 13.683-1.25-1.583a3.529 3.529 0 0 0-2.787-1.4h-.038a3.4867 3.4867 0 0 0-2.758 1.325l-7.867 9.85-12.017 4.533a3.7533 3.7533 0 0 0-1.966 2.35c-.253.96-.077 1.984.483 2.804l6.938 10.529.595 12.829a3.7522 3.7522 0 0 0 1.625 2.596c.55.355 1.192.542 1.846.538.328-.002.654-.045.971-.129l12.154-3.334 7.284 2.009v.208c.935 12.921-3.411 25.685-12.038 35.35-6.667 7.437-16.195 11.695-26.183 11.7l-49.579-.004Zm103.625-16.175c-8.998 9.014-21.006 14.409-33.721 15.15a39.7494 39.7494 0 0 0 9.283-7.604 52.2114 52.2114 0 0 0 10.171-17.125l21.621-21.605c.43-.43.673-1.014.673-1.622 0-1.259-1.036-2.294-2.294-2.294-.608 0-1.191.241-1.621.671l-16.067 16.045c.669-3.769.918-7.6.742-11.425l.083.03c1.063.336 2.225.154 3.134-.492.9-.624 1.453-1.639 1.491-2.733l.292-6.442a52.9103 52.9103 0 0 1 21.346-2.458c1.495 15.522-4.07 30.922-15.142 41.904h.009ZM77.865 168.591l1.667.566.971-1.479a28.1545 28.1545 0 0 0 4.613-15.441c0-12.047-7.733-22.818-19.147-26.671l-1.666-.567-.971 1.479a28.1423 28.1423 0 0 0-4.619 15.447c0 12.045 7.734 22.816 19.148 26.666h.004Zm-11.633-38.025c11.586 4.879 17.252 18.291 12.675 30l-5.275-15.288c-.35-.865-1.195-1.434-2.128-1.434-1.26 0-2.296 1.036-2.296 2.296 0 .216.03.431.09.638l5.209 15.088c-10.644-6.482-14.322-20.398-8.271-31.292l-.004-.008Z"/>
        </svg>